<?xml version="1.0" encoding="utf-8"?>
<!-- Generator: Adobe Illustrator 15.1.0, SVG Export Plug-In . SVG Version: 6.00 Build 0)  -->
<!DOCTYPE svg PUBLIC "-//W3C//DTD SVG 1.1//EN" "http://www.w3.org/Graphics/SVG/1.1/DTD/svg11.dtd">
<svg version="1.1" id="Layer_1" xmlns="http://www.w3.org/2000/svg" xmlns:xlink="http://www.w3.org/1999/xlink" x="0px" y="0px"
	 width="2250px" height="1260px" viewBox="875 360 2250 1260" enable-background="new 875 360 2250 1260" xml:space="preserve">
<rect x="987.157" y="707.157" transform="matrix(0.7071 -0.7071 0.7071 0.7071 -328.0613 1187.9899)" opacity="0.02" fill="#FFFFFF" enable-background="new    " width="565.685" height="565.685"/>
<rect x="2437.157" y="707.157" transform="matrix(0.7071 -0.7071 0.7071 0.7071 96.6338 2213.2947)" opacity="0.02" fill="#FFFFFF" enable-background="new    " width="565.685" height="565.685"/>
<rect x="1158.518" y="643.518" transform="matrix(0.7071 -0.7071 0.7071 0.7071 -259.2314 1354.1599)" opacity="0.02" fill="#FFFFFF" enable-background="new    " width="692.965" height="692.965"/>
<rect x="2138.518" y="643.518" transform="matrix(0.7071 -0.7071 0.7071 0.7071 27.804 2047.1246)" opacity="0.02" fill="#FFFFFF" enable-background="new    " width="692.965" height="692.965"/>
<rect x="1346.949" y="586.949" transform="matrix(0.7071 -0.7071 0.7071 0.7071 -187.4725 1527.4011)" opacity="0.02" fill="#FFFFFF" enable-background="new    " width="806.102" height="806.102"/>
<rect x="1836.949" y="586.949" transform="matrix(0.7071 -0.7071 0.7071 0.7071 -43.9548 1873.8835)" opacity="0.02" fill="#FFFFFF" enable-background="new    " width="806.102" height="806.102"/>
<rect x="1554.523" y="544.523" transform="matrix(0.7071 -0.7071 0.7071 0.7071 -114.2493 1704.1779)" opacity="0.02" fill="#FFFFFF" enable-background="new    " width="890.955" height="890.955"/>
</svg>
