<?xml version="1.0" encoding="utf-8"?>
<!-- Generator: Adobe Illustrator 15.1.0, SVG Export Plug-In . SVG Version: 6.00 Build 0)  -->
<!DOCTYPE svg PUBLIC "-//W3C//DTD SVG 1.1//EN" "http://www.w3.org/Graphics/SVG/1.1/DTD/svg11.dtd">
<svg version="1.1" id="Layer_1" xmlns="http://www.w3.org/2000/svg" xmlns:xlink="http://www.w3.org/1999/xlink" x="0px" y="0px"
	 width="4000px" height="1980px" viewBox="0 0 4000 1980" enable-background="new 0 0 4000 1980" xml:space="preserve">
<g opacity="0.25">
	<g>
		<polyline fill="none" stroke="#FFFFFF" points="1010,-270 2270,990 1010,2250 		"/>
	</g>
	<g>
		<polyline fill="none" stroke="#FFFFFF" points="1130,-270 2390,990 1130,2250 		"/>
	</g>
	<g>
		<polyline fill="none" stroke="#FFFFFF" points="1250,-270 2510,990 1250,2250 		"/>
	</g>
	<g>
		<polyline fill="none" stroke="#FFFFFF" points="1370,-270 2630,990 1370,2250 		"/>
	</g>
	<g>
		<polyline fill="none" stroke="#FFFFFF" points="2630,2250 1370,990 2630,-270 		"/>
	</g>
	<g>
		<polyline fill="none" stroke="#FFFFFF" points="2750,2250 1490,990 2750,-270 		"/>
	</g>
	<g>
		<polyline fill="none" stroke="#FFFFFF" points="2870,2250 1610,990 2870,-270 		"/>
	</g>
	<g>
		<polyline fill="none" stroke="#FFFFFF" points="2990,2250 1730,990 2990,-270 		"/>
	</g>
</g>
<line fill="none" stroke="#FFFFFF" stroke-width="0.5" x1="0" y1="990" x2="4000" y2="990"/>
<polyline opacity="0.2" fill="#EF6406" points="2270,990 1640,1620 1010,990 "/>
<polyline opacity="0.2" fill="#EF6406" points="2990,990 2360,1620 1730,990 "/>
<polyline opacity="0.2" fill="#EF6406" points="2390,990 1760,1620 1130,990 "/>
<polyline opacity="0.2" fill="#EF6406" points="2870,990 2240,1620 1610,990 "/>
<polyline opacity="0.2" fill="#EF6406" points="2510,990 1880,1620 1250,990 "/>
<polyline opacity="0.2" fill="#EF6406" points="2750,990 2120,1620 1490,990 "/>
<polyline opacity="0.2" fill="#EF6406" points="2630,990 2000,1620 1370,990 "/>
<polyline opacity="0.2" fill="#F97C00" points="1010,990 1640,360 2270,990 "/>
<polyline opacity="0.2" fill="#F97C00" points="1730,990 2360,360 2990,990 "/>
<polyline opacity="0.2" fill="#F97C00" points="1130,990 1760,360 2390,990 "/>
<polyline opacity="0.2" fill="#F97C00" points="1610,990 2240,360 2870,990 "/>
<polyline opacity="0.2" fill="#F97C00" points="1250,990 1880,360 2510,990 "/>
<polyline opacity="0.2" fill="#F97C00" points="1490,990 2120,360 2750,990 "/>
<polyline opacity="0.2" fill="#F97C00" points="1370,990 2000,360 2630,990 "/>
</svg>
