<?xml version="1.0" encoding="utf-8"?>
<!-- Generator: Adobe Illustrator 15.1.0, SVG Export Plug-In . SVG Version: 6.00 Build 0)  -->
<!DOCTYPE svg PUBLIC "-//W3C//DTD SVG 1.1//EN" "http://www.w3.org/Graphics/SVG/1.1/DTD/svg11.dtd">
<svg version="1.1" id="Layer_1" xmlns="http://www.w3.org/2000/svg" xmlns:xlink="http://www.w3.org/1999/xlink" x="0px" y="0px"
	 width="241px" height="33.302px" viewBox="0 0 241 33.302" enable-background="new 0 0 241 33.302" xml:space="preserve">
<path opacity="0.75" fill="#1E1E1D" d="M95.735,16.651c0,9.196-7.455,16.651-16.651,16.651c-9.196,0-16.65-7.455-16.65-16.651
	C62.434,7.455,69.888,0,79.084,0C88.28,0,95.735,7.455,95.735,16.651"/>
<g>
	<g>
		<defs>
			<polygon id="SVGID_1_" points="66.597,24.106 66.597,9.201 66.596,9.201 68.536,7.261 91.573,7.261 91.573,24.106 89.639,26.041 
				68.536,26.041 			"/>
		</defs>
		<clipPath id="SVGID_2_">
			<use xlink:href="#SVGID_1_"  overflow="visible"/>
		</clipPath>
		<g opacity="0.7" clip-path="url(#SVGID_2_)">
			<g>
				<defs>
					<rect id="SVGID_3_" x="66.596" y="7.261" width="24.976" height="18.78"/>
				</defs>
				<clipPath id="SVGID_4_">
					<use xlink:href="#SVGID_3_"  overflow="visible"/>
				</clipPath>
				<polygon clip-path="url(#SVGID_4_)" fill="#FFFFFF" points="66.596,26.041 66.596,7.261 91.572,7.261 				"/>
			</g>
		</g>
		<g opacity="0.5" clip-path="url(#SVGID_2_)">
			<g>
				<defs>
					<rect id="SVGID_5_" x="66.596" y="13.521" width="16.651" height="12.52"/>
				</defs>
				<clipPath id="SVGID_6_">
					<use xlink:href="#SVGID_5_"  overflow="visible"/>
				</clipPath>
				<polygon clip-path="url(#SVGID_6_)" fill="#FFFFFF" points="66.596,13.521 66.596,26.041 83.247,26.041 				"/>
			</g>
		</g>
		<g opacity="0.5" clip-path="url(#SVGID_2_)">
			<g>
				<defs>
					<rect id="SVGID_7_" x="83.247" y="17.715" width="8.325" height="8.325"/>
				</defs>
				<clipPath id="SVGID_8_">
					<use xlink:href="#SVGID_7_"  overflow="visible"/>
				</clipPath>
				<rect x="83.247" y="17.715" clip-path="url(#SVGID_8_)" fill="#FFFFFF" width="8.325" height="8.325"/>
			</g>
		</g>
	</g>
</g>
<path fill="#3C3C3B" d="M9.883,13.512H9.251v-1.96L7.67,9.993H2.213l-1.581,1.559v10.368l1.581,1.56H7.67l1.581-1.56v-4.551H5.31
	v-0.632h4.573v5.437l-1.938,1.938H1.938L0,22.172V11.299L1.938,9.36h6.006l1.938,1.938V13.512z"/>
<path fill="#3C3C3B" d="M11.987,24.111v-0.632h2.866V9.993h-2.866V9.36h6.364v0.632h-2.866v13.486h2.866v0.632H11.987z"/>
<path fill="#3C3C3B" d="M20.205,24.216l-0.59-0.21L24.44,9.36h1.265l4.825,14.646l-0.59,0.21l-1.623-4.952h-6.49L20.205,24.216z
	 M28.107,18.632l-2.845-8.64h-0.379l-2.845,8.64H28.107z"/>
<path fill="#3C3C3B" d="M33.479,10.077v14.034h-0.633V9.36h0.949l8.323,14.035V9.36h0.633v14.75h-0.949L33.479,10.077z"/>
<path fill="#3C3C3B" d="M50.228,24.111h-0.632V9.993h-4.952V9.36H55.18v0.632h-4.952V24.111z"/>
<path fill="#3C3C3B" d="M105.085,9.993l-1.559,1.559v2.002l0.358,0.716l8.324,3.962l0.547,1.032v2.908l-1.96,1.938h-6.047
	l-1.707-0.568l0.19-0.591l1.58,0.527h5.731l1.581-1.56v-2.486l-0.379-0.717l-8.366-4.003l-0.485-0.991v-2.423l1.938-1.938h6.153
	l1.623,0.548l-0.189,0.59l-1.581-0.505H105.085z"/>
<path fill="#3C3C3B" d="M124.743,9.36h0.633v14.75h-0.633v-7.501h-8.618v7.501h-0.632V9.36h0.632v6.616h8.618V9.36z"/>
<path fill="#3C3C3B" d="M128.281,24.216l-0.59-0.21l4.825-14.646h1.265l4.825,14.646l-0.59,0.21l-1.622-4.952h-6.491L128.281,24.216
	z M136.184,18.632l-2.845-8.64h-0.38l-2.845,8.64H136.184z"/>
<path fill="#3C3C3B" d="M141.555,24.111h-0.632V9.36h7.923l1.96,1.938v4.7l-1.96,1.938h-7.291V24.111z M141.555,9.993v7.312h7.038
	l1.602-1.58v-4.151l-1.602-1.58H141.555z"/>
<path fill="#3C3C3B" d="M153.542,9.36h8.998v0.632h-8.365v6.006h7.48v0.632h-7.48v6.849h8.365v0.632h-8.998V9.36z"/>
<path fill="#3C3C3B" d="M166.205,9.993l-1.56,1.559v2.002l0.358,0.716l8.323,3.962l0.548,1.032v2.908l-1.96,1.938h-6.047
	l-1.707-0.568l0.189-0.591l1.58,0.527h5.731l1.581-1.56v-2.486l-0.38-0.717l-8.365-4.003l-0.484-0.991v-2.423l1.938-1.938h6.153
	l1.622,0.548l-0.189,0.59l-1.58-0.505H166.205z"/>
<path fill="#3C3C3B" d="M185.863,9.36h0.632v14.75h-0.632v-7.501h-8.618v7.501h-0.633V9.36h0.633v6.616h8.618V9.36z"/>
<path fill="#3C3C3B" d="M189.021,24.111v-0.632h2.866V9.993h-2.866V9.36h6.364v0.632h-2.866v13.486h2.866v0.632H189.021z"/>
<path fill="#3C3C3B" d="M197.913,9.36h8.893v0.632h-8.261v6.216h7.375v0.632h-7.375v7.27h-0.632V9.36z"/>
<path fill="#3C3C3B" d="M212.809,24.111h-0.632V9.993h-4.952V9.36h10.536v0.632h-4.952V24.111z"/>
<path fill="#3C3C3B" d="M219.655,9.36h8.998v0.632h-8.365v6.006h7.48v0.632h-7.48v6.849h8.365v0.632h-8.998V9.36z"/>
<path fill="#3C3C3B" d="M231.602,24.111h-0.633V9.36h7.924l1.96,1.938v4.678l-1.96,1.939h-3.772l5.88,5.88l-0.442,0.441
	l-6.322-6.321h-2.634V24.111z M231.602,9.993v7.291h7.038l1.602-1.58v-4.131l-1.602-1.58H231.602z"/>
</svg>
