<?xml version="1.0" encoding="utf-8"?>
<!-- Generator: Adobe Illustrator 17.0.0, SVG Export Plug-In . SVG Version: 6.00 Build 0)  -->
<!DOCTYPE svg PUBLIC "-//W3C//DTD SVG 1.1//EN" "http://www.w3.org/Graphics/SVG/1.1/DTD/svg11.dtd">
<svg version="1.1" id="Layer_1" xmlns="http://www.w3.org/2000/svg" xmlns:xlink="http://www.w3.org/1999/xlink" x="0px" y="0px"
	 width="332px" height="40px" viewBox="0 0 332 40" enable-background="new 0 0 332 40" xml:space="preserve">
<circle fill="#1E1E1D" cx="109.211" cy="19.712" r="18.866"/>
<polygon opacity="0.7" fill="#FFFFFF" points="96.269,29.443 96.269,9.981 122.153,9.981 "/>
<polygon opacity="0.5" fill="#FFFFFF" points="96.269,16.468 96.269,29.443 113.525,29.443 "/>
<rect x="113.525" y="20.815" opacity="0.5" fill="#FFFFFF" width="8.628" height="8.628"/>
<path fill="#1E1E1D" d="M109.211,0.846c-10.419,0-18.866,8.447-18.866,18.866c0,10.419,8.447,18.866,18.866,18.866
	c10.419,0,18.866-8.447,18.866-18.866C128.077,9.292,119.631,0.846,109.211,0.846z M122.153,27.439l-2.004,2.004H98.279l-2.01-2.005
	V11.991l0,0l2.01-2.011h23.874V27.439z"/>
<path fill="#3D3D3C" d="M14.261,15.43h-0.84v-2.604l-2.1-2.072H4.07l-2.101,2.072v13.776l2.101,2.072h7.252l2.1-2.072v-6.048H8.185
	v-0.84h6.076v7.224l-2.576,2.576H3.705l-2.576-2.576V12.49l2.576-2.576h7.979l2.576,2.576V15.43z"/>
<path fill="#3D3D3C" d="M17.201,29.514v-0.84h3.808v-17.92h-3.808v-0.84h8.456v0.84h-3.809v17.92h3.809v0.84H17.201z"/>
<path fill="#3D3D3C" d="M28.541,29.654l-0.784-0.28l6.412-19.46h1.68l6.412,19.46l-0.784,0.28l-2.155-6.58h-8.624L28.541,29.654z
	 M39.041,22.234l-3.78-11.48h-0.504l-3.78,11.48H39.041z"/>
<path fill="#3D3D3C" d="M46.602,10.866v18.648h-0.84v-19.6h1.26l11.06,18.648V9.914h0.84v19.6h-1.26L46.602,10.866z"/>
<path fill="#3D3D3C" d="M69.281,29.514h-0.84v-18.76h-6.58v-0.84h14v0.84h-6.58V29.514z"/>
<path fill="#3D3D3C" d="M145.624,10.754l-2.072,2.072v2.66l0.477,0.952l11.06,5.264l0.729,1.372v3.864l-2.604,2.576h-8.036
	l-2.268-0.756l0.252-0.784l2.1,0.7h7.616l2.1-2.072v-3.304l-0.504-0.952l-11.115-5.32l-0.645-1.316v-3.22l2.576-2.576h8.176
	l2.156,0.728l-0.252,0.784l-2.101-0.672H145.624z"/>
<path fill="#3D3D3C" d="M172.167,9.914h0.841v19.6h-0.841v-9.968h-11.451v9.968h-0.84v-19.6h0.84v8.792h11.451V9.914z"/>
<path fill="#3D3D3C" d="M177.292,29.654l-0.784-0.28l6.412-19.46h1.68l6.412,19.46l-0.784,0.28l-2.156-6.58h-8.624L177.292,29.654z
	 M187.791,22.234l-3.779-11.48h-0.504l-3.78,11.48H187.791z"/>
<path fill="#3D3D3C" d="M195.351,29.514h-0.84v-19.6h10.527l2.604,2.576v6.244l-2.604,2.576h-9.688V29.514z M195.351,10.754v9.716
	h9.352l2.128-2.1v-5.516l-2.128-2.1H195.351z"/>
<path fill="#3D3D3C" d="M211.703,9.914h11.956v0.84h-11.116v7.98h9.94v0.84h-9.94v9.1h11.116v0.84h-11.956V9.914z"/>
<path fill="#3D3D3C" d="M228.951,10.754l-2.072,2.072v2.66l0.477,0.952l11.06,5.264l0.729,1.372v3.864l-2.604,2.576h-8.036
	l-2.268-0.756l0.252-0.784l2.1,0.7h7.616l2.1-2.072v-3.304l-0.504-0.952l-11.115-5.32l-0.645-1.316v-3.22l2.576-2.576h8.176
	l2.156,0.728l-0.252,0.784l-2.101-0.672H228.951z"/>
<path fill="#3D3D3C" d="M255.495,9.914h0.84v19.6h-0.84v-9.968h-11.452v9.968h-0.84v-19.6h0.84v8.792h11.452V9.914z"/>
<path fill="#3D3D3C" d="M260.114,29.514v-0.84h3.809v-17.92h-3.809v-0.84h8.456v0.84h-3.808v17.92h3.808v0.84H260.114z"/>
<path fill="#3D3D3C" d="M272.35,9.914h11.815v0.84H273.19v8.26h9.8v0.84h-9.8v9.66h-0.84V9.914z"/>
<path fill="#3D3D3C" d="M292.566,29.514h-0.84v-18.76h-6.58v-0.84h14v0.84h-6.58V29.514z"/>
<path fill="#3D3D3C" d="M302.087,9.914h11.956v0.84h-11.116v7.98h9.939v0.84h-9.939v9.1h11.116v0.84h-11.956V9.914z"/>
<path fill="#3D3D3C" d="M318.383,29.514h-0.84v-19.6h10.527l2.604,2.576v6.216l-2.604,2.576h-5.012l7.812,7.812l-0.589,0.588
	l-8.399-8.4h-3.5V29.514z M318.383,10.754v9.688h9.352l2.128-2.1v-5.488l-2.128-2.1H318.383z"/>
</svg>
