<?xml version="1.0" encoding="utf-8"?>
<!-- Generator: Adobe Illustrator 17.0.0, SVG Export Plug-In . SVG Version: 6.00 Build 0)  -->
<!DOCTYPE svg PUBLIC "-//W3C//DTD SVG 1.1//EN" "http://www.w3.org/Graphics/SVG/1.1/DTD/svg11.dtd">
<svg version="1.1" id="Layer_1" xmlns="http://www.w3.org/2000/svg" xmlns:xlink="http://www.w3.org/1999/xlink" x="0px" y="0px"
	 width="332px" height="50px" viewBox="0 0 332 50" enable-background="new 0 0 332 50" xml:space="preserve">
<circle fill="#1E1E1D" cx="108.913" cy="25" r="24.164"/>
<polygon opacity="0.7" fill="#FFFFFF" points="92.336,37.464 92.336,12.536 125.49,12.536 "/>
<polygon opacity="0.5" fill="#FFFFFF" points="92.336,20.845 92.336,37.464 114.439,37.464 "/>
<rect x="114.439" y="26.413" opacity="0.5" fill="#FFFFFF" width="11.051" height="11.051"/>
<path fill="#1E1E1D" d="M108.913,0.836C95.568,0.836,84.749,11.655,84.749,25c0,13.345,10.819,24.164,24.164,24.164
	c13.345,0,24.164-10.819,24.164-24.164C133.077,11.655,122.259,0.836,108.913,0.836z M125.49,34.896l-2.566,2.567H94.911
	l-2.574-2.567V15.111l-0.001,0l2.575-2.575h30.579V34.896z"/>
<path fill="#3D3D3C" d="M13.261,18.016h-0.84v-2.604l-2.1-2.072H3.07l-2.101,2.072v13.776L3.07,31.26h7.252l2.1-2.072V23.14H7.185
	V22.3h6.076v7.224L10.685,32.1H2.705l-2.576-2.576V15.076L2.705,12.5h7.979l2.576,2.576V18.016z"/>
<path fill="#3D3D3C" d="M16.201,32.1v-0.84h3.808V13.34h-3.808V12.5h8.456v0.84h-3.809v17.92h3.809v0.84H16.201z"/>
<path fill="#3D3D3C" d="M27.541,32.24l-0.784-0.28l6.412-19.46h1.68l6.412,19.46l-0.784,0.28l-2.155-6.58h-8.624L27.541,32.24z
	 M38.041,24.82l-3.78-11.48h-0.504l-3.78,11.48H38.041z"/>
<path fill="#3D3D3C" d="M45.602,13.452V32.1h-0.84V12.5h1.26l11.06,18.648V12.5h0.84v19.6h-1.26L45.602,13.452z"/>
<path fill="#3D3D3C" d="M68.281,32.1h-0.84V13.34h-6.58V12.5h14v0.84h-6.58V32.1z"/>
<path fill="#3D3D3C" d="M146.624,13.34l-2.072,2.072v2.66l0.477,0.952l11.06,5.264l0.729,1.372v3.864l-2.604,2.576h-8.036
	l-2.268-0.756l0.252-0.784l2.1,0.7h7.616l2.1-2.072v-3.304l-0.504-0.952l-11.115-5.32l-0.645-1.316v-3.22l2.576-2.576h8.176
	l2.156,0.728l-0.252,0.784l-2.101-0.672H146.624z"/>
<path fill="#3D3D3C" d="M173.167,12.5h0.841v19.6h-0.841v-9.968h-11.451V32.1h-0.84V12.5h0.84v8.792h11.451V12.5z"/>
<path fill="#3D3D3C" d="M178.292,32.24l-0.784-0.28l6.412-19.46h1.68l6.412,19.46l-0.784,0.28l-2.156-6.58h-8.624L178.292,32.24z
	 M188.791,24.82l-3.779-11.48h-0.504l-3.78,11.48H188.791z"/>
<path fill="#3D3D3C" d="M196.351,32.1h-0.84V12.5h10.527l2.604,2.576v6.244l-2.604,2.576h-9.688V32.1z M196.351,13.34v9.716h9.352
	l2.128-2.1V15.44l-2.128-2.1H196.351z"/>
<path fill="#3D3D3C" d="M212.703,12.5h11.956v0.84h-11.116v7.98h9.94v0.84h-9.94v9.1h11.116v0.84h-11.956V12.5z"/>
<path fill="#3D3D3C" d="M229.951,13.34l-2.072,2.072v2.66l0.477,0.952l11.06,5.264l0.729,1.372v3.864l-2.604,2.576h-8.036
	l-2.268-0.756l0.252-0.784l2.1,0.7h7.616l2.1-2.072v-3.304l-0.504-0.952l-11.115-5.32l-0.645-1.316v-3.22l2.576-2.576h8.176
	l2.156,0.728l-0.252,0.784l-2.101-0.672H229.951z"/>
<path fill="#3D3D3C" d="M256.495,12.5h0.84v19.6h-0.84v-9.968h-11.452V32.1h-0.84V12.5h0.84v8.792h11.452V12.5z"/>
<path fill="#3D3D3C" d="M261.114,32.1v-0.84h3.809V13.34h-3.809V12.5h8.456v0.84h-3.808v17.92h3.808v0.84H261.114z"/>
<path fill="#3D3D3C" d="M273.35,12.5h11.815v0.84H274.19v8.26h9.8v0.84h-9.8v9.66h-0.84V12.5z"/>
<path fill="#3D3D3C" d="M293.566,32.1h-0.84V13.34h-6.58V12.5h14v0.84h-6.58V32.1z"/>
<path fill="#3D3D3C" d="M303.087,12.5h11.956v0.84h-11.116v7.98h9.939v0.84h-9.939v9.1h11.116v0.84h-11.956V12.5z"/>
<path fill="#3D3D3C" d="M319.383,32.1h-0.84V12.5h10.527l2.604,2.576v6.216l-2.604,2.576h-5.012l7.812,7.812l-0.589,0.588
	l-8.399-8.4h-3.5V32.1z M319.383,13.34v9.688h9.352l2.128-2.1V15.44l-2.128-2.1H319.383z"/>
</svg>
