<?xml version="1.0" encoding="utf-8"?>
<!-- Generator: Adobe Illustrator 17.0.0, SVG Export Plug-In . SVG Version: 6.00 Build 0)  -->
<!DOCTYPE svg PUBLIC "-//W3C//DTD SVG 1.1//EN" "http://www.w3.org/Graphics/SVG/1.1/DTD/svg11.dtd">
<svg version="1.1" id="Layer_1" xmlns="http://www.w3.org/2000/svg" xmlns:xlink="http://www.w3.org/1999/xlink" x="0px" y="0px"
	 width="300px" height="180px" viewBox="1822.301 160 300 180" enable-background="new 1822.301 160 300 180" xml:space="preserve">
<g>
	
		<rect x="1831.088" y="168.787" transform="matrix(0.7071 0.7071 -0.7071 0.7071 676.8768 -1254.1251)" opacity="0.2" fill="#F97C00" enable-background="new    " width="42.426" height="42.426"/>
	
		<rect x="2071.088" y="168.787" transform="matrix(0.7071 0.7071 -0.7071 0.7071 747.1712 -1423.8307)" opacity="0.2" fill="#F97C00" enable-background="new    " width="42.426" height="42.426"/>
	
		<rect x="1891.088" y="168.787" transform="matrix(0.7071 0.7071 -0.7071 0.7071 694.4504 -1296.5515)" opacity="0.2" fill="#F97C00" enable-background="new    " width="42.426" height="42.426"/>
	
		<rect x="1861.088" y="198.787" transform="matrix(-0.7071 0.7071 -0.7071 -0.7071 3368.8528 -955.4245)" opacity="0.2" fill="#F97C00" enable-background="new    " width="42.426" height="42.426"/>
	
		<rect x="1861.088" y="198.787" transform="matrix(-0.7071 0.7071 -0.7071 -0.7071 3368.8528 -955.4245)" opacity="0.2" fill="#F97C00" enable-background="new    " width="42.426" height="42.426"/>
	
		<rect x="2011.088" y="168.787" transform="matrix(0.7071 0.7071 -0.7071 0.7071 729.5976 -1381.4043)" opacity="0.2" fill="#F97C00" enable-background="new    " width="42.426" height="42.426"/>
	
		<rect x="2041.088" y="198.787" transform="matrix(-0.7071 0.7071 -0.7071 -0.7071 3676.1321 -1082.7037)" opacity="0.2" fill="#F97C00" enable-background="new    " width="42.426" height="42.426"/>
	
		<rect x="2041.088" y="198.787" transform="matrix(-0.7071 0.7071 -0.7071 -0.7071 3676.1321 -1082.7037)" opacity="0.2" fill="#F97C00" enable-background="new    " width="42.426" height="42.426"/>
	
		<rect x="1951.088" y="168.787" transform="matrix(0.7071 0.7071 -0.7071 0.7071 712.024 -1338.9779)" opacity="0.2" fill="#F97C00" enable-background="new    " width="42.426" height="42.426"/>
	
		<rect x="1921.088" y="198.787" transform="matrix(-0.7071 0.7071 -0.7071 -0.7071 3471.2791 -997.8509)" opacity="0.2" fill="#F97C00" enable-background="new    " width="42.426" height="42.426"/>
	
		<rect x="1921.088" y="198.787" transform="matrix(-0.7071 0.7071 -0.7071 -0.7071 3471.2791 -997.8509)" opacity="0.2" fill="#F97C00" enable-background="new    " width="42.426" height="42.426"/>
	
		<rect x="1891.088" y="228.787" transform="matrix(0.7071 -0.7071 0.7071 0.7071 383.3234 1425.4246)" opacity="0.2" fill="#F97C00" enable-background="new    " width="42.426" height="42.426"/>
	
		<rect x="1891.088" y="228.787" transform="matrix(0.7071 -0.7071 0.7071 0.7071 383.3234 1425.4246)" opacity="0.2" fill="#F97C00" enable-background="new    " width="42.426" height="42.426"/>
	
		<rect x="1891.088" y="228.787" transform="matrix(0.7071 -0.7071 0.7071 0.7071 383.3234 1425.4246)" opacity="0.2" fill="#F97C00" enable-background="new    " width="42.426" height="42.426"/>
	
		<rect x="1981.088" y="198.787" transform="matrix(-0.7071 0.7071 -0.7071 -0.7071 3573.7056 -1040.2773)" opacity="0.2" fill="#F97C00" enable-background="new    " width="42.426" height="42.426"/>
	
		<rect x="1981.088" y="198.787" transform="matrix(-0.7071 0.7071 -0.7071 -0.7071 3573.7056 -1040.2773)" opacity="0.2" fill="#F97C00" enable-background="new    " width="42.426" height="42.426"/>
	
		<rect x="2011.088" y="228.787" transform="matrix(-0.7071 -0.7071 0.7071 -0.7071 3292.5786 1863.8307)" opacity="0.2" fill="#F97C00" enable-background="new    " width="42.426" height="42.426"/>
	
		<rect x="2011.088" y="228.787" transform="matrix(-0.7071 -0.7071 0.7071 -0.7071 3292.5786 1863.8307)" opacity="0.2" fill="#F97C00" enable-background="new    " width="42.426" height="42.426"/>
	
		<rect x="2011.088" y="228.787" transform="matrix(-0.7071 -0.7071 0.7071 -0.7071 3292.5786 1863.8307)" opacity="0.2" fill="#F97C00" enable-background="new    " width="42.426" height="42.426"/>
	
		<rect x="1951.088" y="228.787" transform="matrix(0.7071 0.7071 -0.7071 0.7071 754.4504 -1321.4043)" opacity="0.2" fill="#F97C00" enable-background="new    " width="42.426" height="42.426"/>
	
		<rect x="1951.088" y="228.787" transform="matrix(0.7071 0.7071 -0.7071 0.7071 754.4504 -1321.4043)" opacity="0.2" fill="#F97C00" enable-background="new    " width="42.426" height="42.426"/>
	
		<rect x="1951.088" y="228.787" transform="matrix(0.7071 0.7071 -0.7071 0.7071 754.4504 -1321.4043)" opacity="0.2" fill="#F97C00" enable-background="new    " width="42.426" height="42.426"/>
	
		<rect x="1921.088" y="258.787" transform="matrix(0.7071 -0.7071 0.7071 0.7071 370.897 1455.4246)" opacity="0.2" fill="#F97C00" enable-background="new    " width="42.426" height="42.426"/>
	
		<rect x="1921.088" y="258.787" transform="matrix(0.7071 -0.7071 0.7071 0.7071 370.897 1455.4246)" opacity="0.2" fill="#F97C00" enable-background="new    " width="42.426" height="42.426"/>
	
		<rect x="1921.088" y="258.787" transform="matrix(0.7071 -0.7071 0.7071 0.7071 370.897 1455.4246)" opacity="0.2" fill="#F97C00" enable-background="new    " width="42.426" height="42.426"/>
	
		<rect x="1921.088" y="258.787" transform="matrix(0.7071 -0.7071 0.7071 0.7071 370.897 1455.4246)" opacity="0.2" fill="#F97C00" enable-background="new    " width="42.426" height="42.426"/>
	
		<rect x="1981.088" y="258.787" transform="matrix(-0.7071 -0.7071 0.7071 -0.7071 3220.1521 1893.8307)" opacity="0.2" fill="#F97C00" enable-background="new    " width="42.426" height="42.426"/>
	
		<rect x="1981.088" y="258.787" transform="matrix(-0.7071 -0.7071 0.7071 -0.7071 3220.1521 1893.8307)" opacity="0.2" fill="#F97C00" enable-background="new    " width="42.426" height="42.426"/>
	
		<rect x="1981.088" y="258.787" transform="matrix(-0.7071 -0.7071 0.7071 -0.7071 3220.1521 1893.8307)" opacity="0.2" fill="#F97C00" enable-background="new    " width="42.426" height="42.426"/>
	
		<rect x="1981.088" y="258.787" transform="matrix(-0.7071 -0.7071 0.7071 -0.7071 3220.1521 1893.8307)" opacity="0.2" fill="#F97C00" enable-background="new    " width="42.426" height="42.426"/>
	
		<rect x="1951.088" y="288.787" transform="matrix(-0.7071 -0.7071 0.7071 -0.7071 3147.7258 1923.8307)" opacity="0.2" fill="#F97C00" enable-background="new    " width="42.426" height="42.426"/>
	
		<rect x="1951.088" y="288.787" transform="matrix(-0.7071 -0.7071 0.7071 -0.7071 3147.7258 1923.8307)" opacity="0.2" fill="#F97C00" enable-background="new    " width="42.426" height="42.426"/>
	
		<rect x="1951.088" y="288.787" transform="matrix(-0.7071 -0.7071 0.7071 -0.7071 3147.7258 1923.8307)" opacity="0.2" fill="#F97C00" enable-background="new    " width="42.426" height="42.426"/>
	
		<rect x="1951.088" y="288.787" transform="matrix(-0.7071 -0.7071 0.7071 -0.7071 3147.7258 1923.8307)" opacity="0.2" fill="#F97C00" enable-background="new    " width="42.426" height="42.426"/>
	
		<rect x="1951.088" y="288.787" transform="matrix(-0.7071 -0.7071 0.7071 -0.7071 3147.7258 1923.8307)" opacity="0.2" fill="#F97C00" enable-background="new    " width="42.426" height="42.426"/>
</g>
</svg>
